<svg id="Layer_1" data-name="Layer 1" xmlns="http://www.w3.org/2000/svg" viewBox="0 0 50 50"><title>Artboard 6</title><path d="M23.74.3a4.59,4.59,0,0,1,4,7.89,4.62,4.62,0,0,1-7.19-1.33A4.61,4.61,0,0,1,23.74.3ZM24,1.91a3,3,0,1,0,3.28,1.41A3,3,0,0,0,24,1.91Z"/><path d="M16.44,5.64,18.17,5c.13.53.29,1.05.44,1.57L17,7.13C16.85,6.63,16.64,6.14,16.44,5.64Z"/><path d="M31.13,5l1.73.64-.63,1.48-1.55-.54C30.84,6.05,31,5.53,31.13,5Z"/><path d="M13.22,7.3l1.57-.89.75,1.43-1.46.84Z"/><path d="M34.5,6.4l1.58.91-.86,1.37-1.47-.84Z"/><path d="M10.33,9.51l1.4-1.14,1,1.27-1.28,1.08Z"/><path d="M36.59,9.64l1-1.27L39,9.51l-1.1,1.21Z"/><path d="M6.1,10.52a4.6,4.6,0,1,1,.31,9.1,4.6,4.6,0,0,1-.31-9.1Zm-.2,1.72a3,3,0,1,0,3.92,2.27A3,3,0,0,0,5.91,12.24Z"/><path d="M41.59,10.52a4.6,4.6,0,1,1-3.78,4.39A4.62,4.62,0,0,1,41.59,10.52Zm-.2,1.72A3,3,0,1,0,45.17,14,3,3,0,0,0,41.39,12.24Z"/><path d="M23.85,10.69h1.58c0,1.44,0,2.88,0,4.32H23.85C23.83,13.56,23.83,12.12,23.85,10.69Z"/><path d="M23.76,16.24a9.1,9.1,0,1,1-8.2,9.44A9.16,9.16,0,0,1,23.76,16.24Zm-5.12,4.61a7.55,7.55,0,0,0,.86,9.89,3.84,3.84,0,0,1,2.63-2.08,42.86,42.86,0,0,1,4.49-.06,3.73,3.73,0,0,1,3.18,2.14,7.64,7.64,0,0,0,2.29-6.24,7.48,7.48,0,0,0-13.46-3.66Zm2.24,10.93a7.71,7.71,0,0,0,7.55,0c-.69-2.28-3.39-1.43-5.16-1.58A2.18,2.18,0,0,0,20.87,31.77Z"/><path d="M12.38,17.29c1.26.7,2.5,1.43,3.74,2.15-.26.46-.53.93-.78,1.39q-1.89-1-3.75-2.16C11.86,18.22,12.13,17.76,12.38,17.29Z"/><path d="M33.16,19.44c1.25-.72,2.49-1.45,3.74-2.15.26.47.52.93.79,1.39-1.24.74-2.48,1.46-3.75,2.16Z"/><path d="M23.54,20.46a3.55,3.55,0,1,1-2.43,3.47A3.56,3.56,0,0,1,23.54,20.46ZM23.93,22a1.93,1.93,0,1,0,2.45,1A1.94,1.94,0,0,0,23.93,22Z"/><path d="M3.83,20.79l1.57.33c-.09.55-.18,1.1-.26,1.65l-1.62-.19C3.63,22,3.73,21.39,3.83,20.79Z"/><path d="M43.9,21.12l1.57-.33q.15.9.32,1.8l-1.63.19C44.08,22.22,44,21.67,43.9,21.12Z"/><path d="M3.36,24.39,5,24.46q0,.84,0,1.67l-1.62.07C3.36,25.6,3.36,25,3.36,24.39Z"/><path d="M44.32,24.46l1.62-.07q0,.91,0,1.81l-1.62-.07Q44.32,25.29,44.32,24.46Z"/><path d="M3.51,28l1.63-.19c.08.55.17,1.1.26,1.65l-1.57.34C3.73,29.21,3.62,28.61,3.51,28Z"/><path d="M44.16,27.82l1.62.19q-.16.89-.31,1.79l-1.57-.33C44,28.92,44.08,28.37,44.16,27.82Z"/><path d="M11.6,31.91c1.24-.74,2.48-1.46,3.75-2.16l.79,1.39c-1.25.72-2.49,1.45-3.75,2.15Q12,32.6,11.6,31.91Z"/><path d="M34,29.75c1.26.7,2.51,1.41,3.74,2.16-.26.46-.53.92-.78,1.39-1.26-.7-2.5-1.43-3.74-2.15Z"/><path d="M5.89,31.06a4.6,4.6,0,1,1-2.31,7.66A4.64,4.64,0,0,1,5.89,31.06Zm.39,1.57a3,3,0,1,0,3.53,3.56A3,3,0,0,0,6.28,32.62Z"/><path d="M41.38,31.06a4.6,4.6,0,1,1-3.57,4.24A4.62,4.62,0,0,1,41.38,31.06Zm.39,1.57a3,3,0,1,0,3.6,2.88A3,3,0,0,0,41.77,32.63Z"/><path d="M23.84,35.58h1.6c0,1.44,0,2.88,0,4.32H23.85C23.82,38.47,23.84,37,23.84,35.58Z"/><path d="M10.33,41.09l1.1-1.22L12.71,41l-1,1.27Z"/><path d="M36.59,40.95l1.28-1.08L39,41.08l-1.4,1.14Z"/><path d="M23.74,41.29a4.59,4.59,0,1,1-2.58,7.49A4.63,4.63,0,0,1,23.74,41.29ZM23.55,43a3,3,0,1,0,3.92,3.73A3,3,0,0,0,23.55,43Z"/><path d="M14.08,41.91l1.46.84-.75,1.44-1.57-.91Z"/><path d="M33.75,42.75c.49-.27,1-.55,1.47-.84q.42.69.86,1.38l-1.57.89Z"/><path d="M17.06,43.47A13.84,13.84,0,0,1,18.5,44c.11.53-.24,1.06-.35,1.57L16.44,45Z"/><path d="M30.68,44l1.57-.55q.3.74.62,1.48l-1.73.65C31,45.06,30.84,44.54,30.68,44Z"/></svg>