<svg xmlns="http://www.w3.org/2000/svg" viewBox="0 0 50 50"><title>Artboard 5</title><g id="Layer_2" data-name="Layer 2"><path d="M48.84,12.65h-9V10A9.81,9.81,0,0,0,30.2,0H19.8a9.81,9.81,0,0,0-9.62,10v2.68h-9A1.18,1.18,0,0,0,0,13.86V45.12A4.8,4.8,0,0,0,4.71,50H45.29A4.8,4.8,0,0,0,50,45.12V13.86A1.18,1.18,0,0,0,48.84,12.65ZM12.5,10a7.44,7.44,0,0,1,7.3-7.56H30.2A7.44,7.44,0,0,1,37.5,10v2.68H35.17V10a5.07,5.07,0,0,0-5-5.15H19.8a5.07,5.07,0,0,0-5,5.15v2.68H12.5Zm20.35,0v2.68H17.15V10A2.7,2.7,0,0,1,19.8,7.23H30.2A2.7,2.7,0,0,1,32.85,10ZM47,15.06,40.13,29.7A5,5,0,0,1,37.94,32v-.77a2.48,2.48,0,0,0-2.43-2.52h-2.7a2.47,2.47,0,0,0-2.43,2.52v1.31H19.62V31.22a2.48,2.48,0,0,0-2.43-2.52h-2.7a2.48,2.48,0,0,0-2.43,2.52V32a5,5,0,0,1-2.2-2.29L3,15.06ZM35.61,31.22V37a.1.1,0,0,1-.1.11h-2.7a.1.1,0,0,1-.1-.11V31.22a.1.1,0,0,1,.1-.11h2.7A.1.1,0,0,1,35.61,31.22Zm-18.31,0V37a.1.1,0,0,1-.1.11h-2.7a.1.1,0,0,1-.1-.11V31.22a.1.1,0,0,1,.1-.11h2.7A.1.1,0,0,1,17.3,31.22Zm30.38,13.9h0a2.43,2.43,0,0,1-2.38,2.47H4.71a2.43,2.43,0,0,1-2.38-2.47v-26L7.78,30.75a7.3,7.3,0,0,0,4.29,3.84V37a2.48,2.48,0,0,0,2.43,2.52h2.7A2.47,2.47,0,0,0,19.62,37V34.94H30.38V37a2.48,2.48,0,0,0,2.43,2.52h2.7A2.48,2.48,0,0,0,37.94,37V34.59a7.3,7.3,0,0,0,4.29-3.84L47.67,19.1ZM41.74,44a1.18,1.18,0,0,0,1.16,1.2h1.22a1.21,1.21,0,0,0,0-2.41H42.91A1.18,1.18,0,0,0,41.74,44Zm-11.81-1.2H27.68a1.21,1.21,0,0,0,0,2.41h2.25a1.21,1.21,0,0,0,0-2.41Zm7.61,0H35.29a1.21,1.21,0,0,0,0,2.41h2.25a1.21,1.21,0,0,0,0-2.41Zm-15.23,0H20.07a1.21,1.21,0,0,0,0,2.41h2.25a1.21,1.21,0,0,0,0-2.41Zm-7.61,0H12.45a1.21,1.21,0,0,0,0,2.41h2.25a1.21,1.21,0,0,0,0-2.41Zm-7.61,0H5.87a1.21,1.21,0,0,0,0,2.41H7.09a1.21,1.21,0,0,0,0-2.41Zm3.84-24.1a1.18,1.18,0,0,0-1.16-1.21H8.55a1.21,1.21,0,0,0,0,2.41H9.77A1.18,1.18,0,0,0,10.93,18.67ZM32,19.88h2.43a1.21,1.21,0,0,0,0-2.41H32a1.21,1.21,0,0,0,0,2.41Zm-8.22,0h2.43a1.21,1.21,0,0,0,0-2.41H23.78a1.21,1.21,0,0,0,0,2.41Zm-8.22,0H18a1.21,1.21,0,0,0,0-2.41H15.56a1.21,1.21,0,0,0,0,2.41Zm24.67,0h1.22a1.21,1.21,0,0,0,0-2.41H40.23a1.21,1.21,0,0,0,0,2.41Z"/></g></svg>