<svg xmlns="http://www.w3.org/2000/svg" viewBox="0 0 50 50"><title>Artboard 1</title><g id="Layer_6" data-name="Layer 6"><path d="M9.57,9.4h5.12a1,1,0,0,0,0-2H9.57a1,1,0,0,0,0,2Zm0,4.09h4.24a1,1,0,0,0,0-2H9.57a1,1,0,0,0,0,2Zm7.27,0h2.69a1,1,0,0,0,0-2H16.85a1,1,0,0,0,0,2Zm7.31-2a1,1,0,0,0,0,2h5.76a1,1,0,0,0,0-2Zm6.77,5.11a1,1,0,0,0-1-1H9.57a1,1,0,0,0,0,2H29.92A1,1,0,0,0,30.93,16.55ZM18.77,9.4H29.92a1,1,0,0,0,0-2H18.77a1,1,0,0,0,0,2ZM40.69,24.83H33.87a1,1,0,0,0,0,2h6.82a1,1,0,0,0,0-2Zm0,4.16H36.25a1,1,0,0,0,0,2h4.45a1,1,0,0,0,0-2ZM42,16.66H36.92v-9A6.6,6.6,0,0,0,30.36,1H9.13A6.6,6.6,0,0,0,2.57,7.63v9.72A6.6,6.6,0,0,0,9.13,24h10v4.11H19a5.21,5.21,0,0,0-5.17,5.23v7.29a5.22,5.22,0,0,0,4.32,5.16V49a1,1,0,0,0,.52.89,1,1,0,0,0,1,0l6.33-4h8.9a5.21,5.21,0,0,0,5.17-5.23V35.8H42a5.58,5.58,0,0,0,5.54-5.6V22.26A5.57,5.57,0,0,0,42,16.66ZM9.13,21.95h0a4.57,4.57,0,0,1-4.54-4.59V7.63A4.57,4.57,0,0,1,9.13,3H30.36A4.57,4.57,0,0,1,34.9,7.63v9.72a4.57,4.57,0,0,1-4.54,4.59h-.21a1,1,0,0,0-1,1v4.89L22,22.17a1,1,0,0,0-.63-.22ZM38,40.63h0a3.17,3.17,0,0,1-3.15,3.19H25.71a1,1,0,0,0-.53.15l-5,3.17v-2.3a1,1,0,0,0-1-1H19a3.17,3.17,0,0,1-3.15-3.19V33.34A3.17,3.17,0,0,1,19,30.15h.18v0a5.59,5.59,0,0,0,4.7,5.54v4.75a1,1,0,0,0,.57.92,1,1,0,0,0,1.07-.12l6.88-5.49H38ZM45.52,30.2A3.54,3.54,0,0,1,42,33.75H32a1,1,0,0,0-.63.22l-5.52,4.4v-3.6a1,1,0,0,0-1-1h-.17a3.54,3.54,0,0,1-3.52-3.56V24.1l8.36,6.67a1,1,0,0,0,1.07.12,1,1,0,0,0,.57-.92v-6a6.6,6.6,0,0,0,5.62-5.24H42a3.54,3.54,0,0,1,3.52,3.56Z"/></g></svg>