<svg xmlns="http://www.w3.org/2000/svg" viewBox="0 0 50 50"><title>Artboard 4</title><g id="Layer_3" data-name="Layer 3"><path d="M36.12,42.76h-.59c-4.94-8.28-5-8.86-4-18.5a2.22,2.22,0,0,0,1.71-2.17V19.78a2.21,2.21,0,0,0-2.19-2.22H30.4l1.38-3.5a1,1,0,0,0-.1-.9,1,1,0,0,0-.79-.42H28V10.56h1.91a1,1,0,0,0,1-1V5.73a1,1,0,0,0-1-1H28V2.59a1,1,0,0,0-1-1H23.27a1,1,0,0,0-1,1V4.76H20.41a1,1,0,0,0-1,1V9.59a1,1,0,0,0,1,1h1.91v2.17H19.46a1,1,0,0,0-.79.42,1,1,0,0,0-.1.9L20,17.56h-.69a2.21,2.21,0,0,0-2.19,2.22V22.1a2.22,2.22,0,0,0,1.71,2.17c1.08,9.64,1,10.22-4,18.5h-.59a2.91,2.91,0,0,0-2.88,2.92v1.4A2.91,2.91,0,0,0,14.24,50H36.12A2.91,2.91,0,0,0,39,47.08v-1.4A2.91,2.91,0,0,0,36.12,42.76ZM21.37,8.63V6.69h1.91a1,1,0,0,0,1-1V3.56h1.91V5.73a1,1,0,0,0,1,1H29V8.63H27.09a1,1,0,0,0-1,1v3.14H24.23V9.59a1,1,0,0,0-1-1H21.37Zm8.12,6-1.14,2.9H22l-1.14-2.9ZM19.27,22.38A.29.29,0,0,1,19,22.1V19.78a.29.29,0,0,1,.29-.29H31.09a.29.29,0,0,1,.29.29V22.1a.29.29,0,0,1-.29.29ZM21.17,29h3.58a1,1,0,0,0,0-1.93H21c-.08-.84-.18-1.75-.29-2.75h8.94c-.77,6.84-.94,9.35.9,13.37H25.13a1,1,0,0,0,0,1.93h6.38c.5.93,1.09,2,1.78,3.14H17.06C20.77,36.46,21.54,34.35,21.17,29ZM37.09,47.08a1,1,0,0,1-1,1H14.24a1,1,0,0,1-1-1v-1.4a1,1,0,0,1,1-1H36.12a1,1,0,0,1,1,1v1.4Z"/></g></svg>