<svg xmlns="http://www.w3.org/2000/svg" viewBox="0 0 50 50"><title>Artboard 2</title><g id="Layer_5" data-name="Layer 5"><path d="M30.88,35a16.71,16.71,0,0,1-5.08.78A16.41,16.41,0,0,1,14.31,31.2a15.47,15.47,0,0,1,0-22.32A16.45,16.45,0,0,1,25.8,4.26a16.72,16.72,0,0,1,6.11,1.15,16.22,16.22,0,0,1,5.38,3.47,15.46,15.46,0,0,1,2.93,18.43l2.22,2.16a18.2,18.2,0,0,0,2.83-9.76C45.26,9.37,36.65,1,26,1a19.53,19.53,0,0,0-8.22,1.8A18.66,18.66,0,0,0,6.65,19.74v3.11L2.72,30.13c-1,1.84-.05,3.34,2.08,3.34H6.66v6.92a4,4,0,0,0,4,3.93l5.55-.8V49a1.1,1.1,0,0,0,1.37,1l20-3.44A1.69,1.69,0,0,0,39,44.94V39.62L33.3,34.05A16.77,16.77,0,0,1,30.88,35Zm16.58,2.32-9.38-9.12-.51.49-.52-.5a13.38,13.38,0,0,0-1.31-17.85,14.36,14.36,0,0,0-19.89,0,13.39,13.39,0,0,0,0,19.32A14.36,14.36,0,0,0,34.23,31l.52.5-.51.49,9.38,9.12a2.78,2.78,0,0,0,3.85,0A2.61,2.61,0,0,0,47.46,37.35Zm-14-9.89a11,11,0,0,1-15.28,0,10.29,10.29,0,0,1,0-14.85,11,11,0,0,1,15.28,0A10.29,10.29,0,0,1,33.44,27.46ZM25.8,18.33A1.72,1.72,0,1,0,27.56,20,1.74,1.74,0,0,0,25.8,18.33Zm5.45,0A1.72,1.72,0,1,0,33,20,1.74,1.74,0,0,0,31.25,18.33Zm-10.9,0A1.72,1.72,0,1,0,22.12,20,1.74,1.74,0,0,0,20.35,18.33Z"/></g></svg>