<svg id="Layer_1" data-name="Layer 1" xmlns="http://www.w3.org/2000/svg" viewBox="0 0 50 50"><title>Thumbsup</title><path d="M43.06,27.76A3.83,3.83,0,0,0,47,24a3.86,3.86,0,0,0-3.46-4.21L29.7,18A26.22,26.22,0,0,0,32.59,5.8c0-4.87-3.4-5.52-5.4-5.52-1.57,0-2,3.12-2,3.12h0a22.67,22.67,0,0,1-2.43,7c-1.81,3.6-4.26,3.27-7.14,6.47a16.66,16.66,0,0,0-1.85,2.65.91.91,0,0,0-.15.27c-.06.14-.13.24-.19.37s-.22.41-.32.63c-1.78,1.82-4.55,1.63-5.72,1.63-2.36,0-3.6,1.4-3.6,3.68V42.89c0,2.56,1,3.42,3.6,3.42H11c1.81,0,3.23,1.06,5.4,1.84,3,1.05,7.41,1.84,15.06,1.84h5.49a4.33,4.33,0,0,0,3-1.31,2.38,2.38,0,0,0,.7-1.44c0-.12,0-.62,0-.69a3,3,0,0,0-1.95-3.26s0,0,0,0l2.35.11a3.92,3.92,0,0,0,4.14-4,3.83,3.83,0,0,0-3.79-3.79l1.24.06a3.93,3.93,0,0,0,.34-7.84Z"/></svg>